<svg id="check-3" xmlns="http://www.w3.org/2000/svg" width="16.404" height="13.889" viewBox="0 0 16.404 13.889">
  <g id="Group_22" data-name="Group 22" transform="translate(0 0)">
    <path id="Path_15" data-name="Path 15" d="M13.691,44.026a.261.261,0,0,0-.119-.03.311.311,0,0,0-.227.1l-.631.631a.3.3,0,0,0-.089.217v2.505a1.583,1.583,0,0,1-1.578,1.578H2.841a1.52,1.52,0,0,1-1.115-.464,1.52,1.52,0,0,1-.464-1.115V39.242a1.52,1.52,0,0,1,.464-1.115,1.52,1.52,0,0,1,1.115-.464h8.207a1.753,1.753,0,0,1,.444.059.317.317,0,0,0,.089.02.312.312,0,0,0,.227-.1l.483-.483a.307.307,0,0,0,.089-.286.3.3,0,0,0-.178-.227,2.716,2.716,0,0,0-1.154-.247H2.841a2.736,2.736,0,0,0-2.007.834A2.737,2.737,0,0,0,0,39.242v8.207a2.736,2.736,0,0,0,.834,2.007,2.736,2.736,0,0,0,2.007.834h8.207a2.847,2.847,0,0,0,2.841-2.841V44.312A.287.287,0,0,0,13.691,44.026Z" transform="translate(0 -36.401)" fill="#23cb15"/>
    <path id="Path_16" data-name="Path 16" d="M87.006,56.278l-1.085-1.085a.786.786,0,0,0-1.125,0l-6.382,6.382L75.82,58.981a.786.786,0,0,0-1.125,0l-1.085,1.085a.786.786,0,0,0,0,1.125l4.242,4.242a.786.786,0,0,0,1.125,0L87.006,57.4a.786.786,0,0,0,0-1.124Z" transform="translate(-70.839 -54.315)" fill="#23cb15"/>
  </g>
</svg>
