<svg xmlns="http://www.w3.org/2000/svg" width="21.5" height="21.499" viewBox="0 0 21.5 21.499">
  <g id="store" transform="translate(-1.25 -1.251)">
    <path id="Path_4838" data-name="Path 4838" d="M21,6.25H3A.75.75,0,0,0,2.25,7V22.75h19.5V7A.75.75,0,0,0,21,6.25Z" fill="#00aa5b"/>
    <path id="Path_4839" data-name="Path 4839" d="M21.7,6.721l-1.749-4.37a1.739,1.739,0,0,0-1.624-1.1H5.677a1.739,1.739,0,0,0-1.624,1.1L2.3,6.721A.75.75,0,0,0,3,7.75H21a.75.75,0,0,0,.7-1.029Z" fill="#00aa5b"/>
    <g id="Group_10270" data-name="Group 10270">
      <path id="Path_4840" data-name="Path 4840" d="M12,6.25H7A.75.75,0,0,0,6.25,7V9.5a3.25,3.25,0,0,0,6.5,0V7A.75.75,0,0,0,12,6.25Z" fill="#145638"/>
      <path id="Path_4841" data-name="Path 4841" d="M21,6.25H17a.75.75,0,0,0-.75.75V9.5a3.25,3.25,0,1,0,6.5,0V8A1.752,1.752,0,0,0,21,6.25Z" fill="#145638"/>
      <path id="Path_4842" data-name="Path 4842" d="M17,6.25H12a.75.75,0,0,0-.75.75V9.5a3.25,3.25,0,1,0,6.5,0V7A.75.75,0,0,0,17,6.25Z" fill="#145638"/>
      <path id="Path_4843" data-name="Path 4843" d="M7,6.25H3A1.752,1.752,0,0,0,1.25,8V9.5a3.25,3.25,0,1,0,6.5,0V7A.75.75,0,0,0,7,6.25Z" fill="#145638"/>
    </g>
    <path id="Path_4844" data-name="Path 4844" d="M12,15.25H6a.75.75,0,0,0-.75.75v6.75h7.5V16A.75.75,0,0,0,12,15.25Z" fill="#fff"/>
    <path id="Path_4845" data-name="Path 4845" d="M19,16.75H16a.75.75,0,0,1,0-1.5h3a.75.75,0,0,1,0,1.5Z" fill="#fcc400"/>
  </g>
</svg>
