<svg xmlns="http://www.w3.org/2000/svg" width="18.375" height="21.515" viewBox="0 0 18.375 21.515">
  <g id="privacy-policy" transform="translate(-37.475 0)">
    <g id="ESSENTIAL_UI" data-name="ESSENTIAL UI" transform="translate(37.475 0)">
      <path id="Path_4860" data-name="Path 4860" d="M55.846,8.933a37.43,37.43,0,0,0-.484-5.368,1.681,1.681,0,0,0-.877-.791c-2.521-.978-5-1.911-7.417-2.707a1.194,1.194,0,0,0-.754,0c-2.417.794-4.9,1.725-7.417,2.7a1.681,1.681,0,0,0-.808.67,22.868,22.868,0,0,0-.609,5.337,15.4,15.4,0,0,0,.388,4.77,7.611,7.611,0,0,0,1.374,2.462A17.748,17.748,0,0,0,42.2,18.848a24.766,24.766,0,0,0,3.958,2.546,1.207,1.207,0,0,0,1.072,0,24.835,24.835,0,0,0,3.96-2.549A17.856,17.856,0,0,0,54.142,16a7.439,7.439,0,0,0,1.424-2.633,20.89,20.89,0,0,0,.28-4.439Z" transform="translate(-37.475 -0.005)" fill="#fcdf65"/>
      <path id="Path_4861" data-name="Path 4861" d="M46.314.061c-2.417.794-4.9,1.726-7.417,2.7a1.681,1.681,0,0,0-.808.67A22.868,22.868,0,0,0,37.48,8.77a15.4,15.4,0,0,0,.388,4.77A7.611,7.611,0,0,0,39.242,16c.2.255.427.513.668.772q.522.047,1.056.047A11.7,11.7,0,0,0,52.2,1.891C50.463,1.237,48.75.616,47.068.061a1.194,1.194,0,0,0-.754,0Z" transform="translate(-37.475 0)" fill="#f7d64e"/>
      <path id="Path_4862" data-name="Path 4862" d="M207.328,175.993v1.957a1,1,0,1,1-2,0v-1.929a2.185,2.185,0,1,1,2-.028Z" transform="translate(-197.115 -164.656)" fill="#fff"/>
    </g>
  </g>
</svg>
