<svg xmlns="http://www.w3.org/2000/svg" width="24.627" height="23.956" viewBox="0 0 24.627 23.956">
  <g id="Layer_26" transform="translate(0)">
    <path id="Path_193" data-name="Path 193" d="M23.375,2H6.325A3.673,3.673,0,0,0,2.536,5.545V22.411a3.673,3.673,0,0,0,3.789,3.546H23.374a3.673,3.673,0,0,0,3.789-3.545V5.545A3.672,3.672,0,0,0,23.375,2ZM10.664,6.523h8.372a.772.772,0,1,1,0,1.54H10.664a.772.772,0,1,1,0-1.54Zm4.78,14.054H7.224a.772.772,0,1,1,0-1.54h8.219a.772.772,0,1,1,0,1.54Zm0-6.076H7.224a.772.772,0,1,1,0-1.54h8.219a.772.772,0,1,1,0,1.54Zm7.548,5.051-2.269,1.711a.86.86,0,0,1-.516.17.882.882,0,0,1-.094-.005.833.833,0,0,1-.553-.29l-.893-1.064a.738.738,0,0,1,.139-1.081.861.861,0,0,1,1.156.13l.378.45,1.62-1.222a.864.864,0,0,1,1.158.117.738.738,0,0,1-.125,1.084Zm0-6.076-2.269,1.71a.86.86,0,0,1-.516.17.882.882,0,0,1-.094-.005.833.833,0,0,1-.553-.29L18.667,14a.738.738,0,0,1,.139-1.081.861.861,0,0,1,1.156.13l.378.451,1.62-1.222a.865.865,0,0,1,1.158.117.738.738,0,0,1-.125,1.084Z" transform="translate(-2.536 -2)" fill="#d11f2f"/>
  </g>
</svg>
